HIERARCHY
ROOT mixamorig:Hips
{
	OFFSET -0.000419 2.091508 -0.014164
	CHANNELS 6 Xposition Yposition Zposition Xrotation Yrotation Zrotation
	JOINT mixamorig:Spine
	{
		OFFSET -0.001948 0.198048 -0.038897
		CHANNELS 3 Xrotation Yrotation Zrotation
		JOINT mixamorig:Spine1
		{
			OFFSET -0.002704 0.235003 -0.023603
			CHANNELS 3 Xrotation Yrotation Zrotation
			JOINT mixamorig:Spine2
			{
				OFFSET -0.001091 0.278076 -0.011954
				CHANNELS 3 Xrotation Yrotation Zrotation
				JOINT mixamorig:Neck
				{
					OFFSET 0.005730 0.310619 0.037617
					CHANNELS 3 Xrotation Yrotation Zrotation
					JOINT mixamorig:Head
					{
						OFFSET 0.010419 0.222310 0.065134
						CHANNELS 3 Xrotation Yrotation Zrotation
						End Site
						{
							OFFSET 0.010419 0.222310 0.065135
						}
					}
				}
				JOINT mixamorig:LeftShoulder
				{
					OFFSET 0.129541 0.188948 0.026782
					CHANNELS 3 Xrotation Yrotation Zrotation
					JOINT mixamorig:LeftArm
					{
						OFFSET 0.262609 0.007741 -0.040542
						CHANNELS 3 Xrotation Yrotation Zrotation
						JOINT mixamorig:LeftForeArm
						{
							OFFSET 0.551277 -0.000001 -0.000000
							CHANNELS 3 Xrotation Yrotation Zrotation
							JOINT mixamorig:LeftHand
							{
								OFFSET 0.527734 -0.000000 0.000000
								CHANNELS 3 Xrotation Yrotation Zrotation
								End Site
								{
									OFFSET 0.527734 -0.000001 0.000000
								}
							}
						}
					}
				}
				JOINT mixamorig:RightShoulder
				{
					OFFSET -0.126373 0.192153 0.021809
					CHANNELS 3 Xrotation Yrotation Zrotation
					JOINT mixamorig:RightArm
					{
						OFFSET -0.263354 0.004609 -0.054230
						CHANNELS 3 Xrotation Yrotation Zrotation
						JOINT mixamorig:RightForeArm
						{
							OFFSET -0.558427 -0.000000 -0.000000
							CHANNELS 3 Xrotation Yrotation Zrotation
							JOINT mixamorig:RightHand
							{
								OFFSET -0.503137 -0.000000 -0.000000
								CHANNELS 3 Xrotation Yrotation Zrotation
								End Site
								{
									OFFSET -0.503137 0.000000 0.000000
								}
							}
						}
					}
				}
			}
		}
	}
	JOINT mixamorig:LeftUpLeg
	{
		OFFSET 0.185244 -0.138385 0.026620
		CHANNELS 3 Xrotation Yrotation Zrotation
		JOINT mixamorig:LeftLeg
		{
			OFFSET -0.004065 -0.852313 -0.015108
			CHANNELS 3 Xrotation Yrotation Zrotation
			JOINT mixamorig:LeftFoot
			{
				OFFSET 0.004508 -0.854152 -0.051445
				CHANNELS 3 Xrotation Yrotation Zrotation
				JOINT mixamorig:LeftToeBase
				{
					OFFSET 0.026925 -0.213949 0.242907
					CHANNELS 3 Xrotation Yrotation Zrotation
					End Site
					{
						OFFSET -0.005614 0.004268 0.324736
					}
				}
			}
		}
	}
	JOINT mixamorig:RightUpLeg
	{
		OFFSET -0.184403 -0.144117 0.001603
		CHANNELS 3 Xrotation Yrotation Zrotation
		JOINT mixamorig:RightLeg
		{
			OFFSET 0.005493 -0.848120 0.010027
			CHANNELS 3 Xrotation Yrotation Zrotation
			JOINT mixamorig:RightFoot
			{
				OFFSET -0.005940 -0.852616 -0.051576
				CHANNELS 3 Xrotation Yrotation Zrotation
				JOINT mixamorig:RightToeBase
				{
					OFFSET -0.031537 -0.214911 0.248182
					CHANNELS 3 Xrotation Yrotation Zrotation
					End Site
					{
						OFFSET -0.045720 0.003764 0.326606
					}
				}
			}
		}
	}
}
MOTION
Frames: 17
Frame Time: 0.033333
0.004255 2.073045 -0.032703 -3.742523 -5.221837 -3.543742 3.280915 1.529716 2.508497 1.151889 0.336567 1.553486 1.126014 0.361144 1.556219 5.626472 -0.084482 0.451444 -7.563195 1.370464 -0.084391 1.046972 -17.442218 -12.319748 3.916238 -19.989279 -69.765260 -0.000002 -1.459358 -0.000001 -33.230475 -1.366201 -6.186295 1.208278 15.344268 14.705382 13.158873 27.555145 58.785143 -0.000010 6.693739 0.000002 -20.179116 -0.513386 6.782865 -11.160221 14.636298 10.534180 12.996406 2.003957 4.197286 0.893441 0.559769 -7.475162 -4.922199 0.000013 -0.000000 1.499741 -10.343522 3.599359 6.003210 -9.774237 -3.276891 -3.258322 -1.620241 2.982747 -7.282868 -0.000003 -0.000014 
0.004310 2.073050 -0.032854 -3.742565 -5.239305 -3.545760 3.280835 1.529730 2.509372 1.134997 0.336565 1.553486 1.108871 0.361145 1.556219 5.626471 -0.084481 0.451443 -7.502310 1.370946 -0.070869 1.045475 -17.491814 -12.338446 4.216167 -20.442608 -69.444377 0.000007 -1.740650 -0.000019 -33.608434 -1.472545 -6.213007 1.212773 15.352500 14.680061 13.461545 28.156751 58.183704 0.000008 7.104294 0.000007 -20.554018 -0.731388 6.918696 -11.158455 14.636515 10.534863 12.980119 2.024434 4.197333 0.895416 0.559555 -7.487623 -4.922199 0.000006 0.000000 1.492151 -10.344929 3.608593 5.998576 -9.766920 -3.290415 -3.247767 -1.620784 2.984164 -7.282886 0.000004 -0.000015 
0.004399 2.073037 -0.033177 -3.742922 -5.290622 -3.548502 3.280898 1.528188 2.508740 1.116574 0.333698 1.553486 1.090266 0.360557 1.556219 5.626475 -0.084481 0.451443 -7.446773 1.366631 -0.063342 1.047744 -17.527934 -12.335744 4.633988 -21.047564 -69.025803 -0.000012 -2.229694 0.000001 -34.215054 -1.716457 -6.375938 1.223136 15.416630 14.613832 13.491154 28.586112 57.591943 -0.000005 7.795356 0.000013 -21.125111 -0.937340 7.238488 -11.160270 14.636059 10.546106 12.972034 2.076421 4.186907 0.898763 0.559550 -7.499516 -4.922203 0.000003 -0.000003 1.462881 -10.337876 3.611074 6.020168 -9.731890 -3.297427 -3.242341 -1.620547 2.980186 -7.294048 -0.000013 -0.000018 
0.004522 2.073023 -0.033713 -3.743540 -5.370389 -3.551885 3.281085 1.524776 2.506872 1.097766 0.326816 1.544473 1.071340 0.355390 1.546682 5.626475 -0.084480 0.455855 -7.404463 1.346938 -0.052298 1.049336 -17.560823 -12.327642 5.098489 -21.674292 -68.501265 -0.000007 -2.999775 0.000009 -34.969223 -2.253114 -6.784275 1.243040 15.548854 14.498806 13.092325 28.754133 57.080079 0.000004 8.896671 -0.000002 -21.830524 -0.939865 7.633208 -11.154177 14.630895 10.556345 12.962572 2.157944 4.174840 0.909625 0.559738 -7.502500 -4.922204 0.000006 0.000000 1.423003 -10.327162 3.604723 6.053620 -9.675308 -3.296027 -3.237616 -1.619826 2.972699 -7.302075 -0.000001 -0.000014 
0.004646 2.073010 -0.034477 -3.757713 -5.462968 -3.556610 3.278256 1.521197 2.504212 1.079230 0.319268 1.529403 1.052724 0.348515 1.531570 5.638580 -0.087642 0.472865 -7.361591 1.313759 -0.025434 1.049072 -17.597569 -12.323049 5.522028 -22.177711 -67.881541 -0.000000 -4.112315 0.000009 -35.886466 -3.281785 -7.420728 1.273616 15.733016 14.326035 12.178822 28.800562 56.708414 0.000010 10.265464 -0.000014 -22.425084 -0.669527 7.844166 -11.139105 14.621618 10.565464 12.947295 2.250150 4.161437 0.931806 0.560005 -7.509192 -4.922206 0.000010 -0.000000 1.379378 -10.322870 3.591198 6.098833 -9.601203 -3.286354 -3.227304 -1.618002 2.958059 -7.305838 0.000003 -0.000016 
0.004725 2.072992 -0.035440 -3.783278 -5.559660 -3.565910 3.271767 1.517426 2.493123 1.059475 0.311792 1.510316 1.032934 0.340440 1.512844 5.656136 -0.095368 0.496296 -7.312010 1.282002 0.011361 1.049625 -17.628057 -12.321900 5.836438 -22.551338 -67.199875 -0.000007 -5.503188 -0.000001 -37.123403 -4.884695 -8.157782 1.318673 15.935132 14.080843 10.842084 29.091808 56.403876 0.000007 11.626538 -0.000016 -22.648984 -0.339342 7.609001 -11.118557 14.619832 10.584439 12.925024 2.333622 4.147392 0.968735 0.559228 -7.532305 -4.921279 0.000011 0.000001 1.341972 -10.314982 3.587198 6.142462 -9.530825 -3.280011 -3.211473 -1.615251 2.938782 -7.313650 0.000009 -0.000016 
0.004739 2.072969 -0.036552 -3.819552 -5.651932 -3.588194 3.262539 1.513778 2.481099 1.033980 0.305286 1.488958 1.007428 0.332334 1.492255 5.681042 -0.103916 0.518717 -7.239626 1.247727 0.044646 1.050999 -17.637459 -12.323302 6.016210 -22.954065 -66.491516 -0.000007 -6.981325 0.000002 -38.822758 -6.894183 -8.919600 1.384424 16.139679 13.735393 9.486366 29.876385 55.782971 -0.000007 13.460235 -0.000008 -22.492294 -0.295802 6.900026 -11.091707 14.626147 10.618770 12.891653 2.406667 4.132994 1.017177 0.557668 -7.561477 -4.920159 0.000014 -0.000004 1.327186 -10.297093 3.602640 6.158046 -9.473759 -3.276866 -3.178812 -1.611673 2.915755 -7.328774 0.000003 -0.000015 
0.004688 2.072953 -0.037725 -3.867723 -5.722631 -3.615894 3.248180 1.510390 2.468112 0.997782 0.298659 1.464527 0.971180 0.324241 1.468570 5.720062 -0.112681 0.534718 -7.131948 1.200154 0.066098 1.051124 -17.637459 -12.332668 6.165086 -23.559443 -65.701338 -0.000013 -8.630826 -0.000011 -40.992251 -8.897342 -9.661183 1.478029 16.370760 13.255854 8.686665 30.875805 54.368873 0.000006 17.340196 -0.000005 -22.088412 -0.648633 5.910564 -11.051150 14.637982 10.654910 12.841703 2.459122 4.124685 1.072876 0.556479 -7.576279 -4.918801 0.000009 -0.000000 1.337779 -10.279397 3.628247 6.152664 -9.432471 -3.274556 -3.138012 -1.607906 2.890748 -7.341243 0.000004 -0.000019 
0.004576 2.072958 -0.038899 -3.930358 -5.762807 -3.642415 3.228575 1.507385 2.453260 0.950456 0.291488 1.434273 0.923695 0.315329 1.438798 5.774633 -0.125932 0.546420 -6.990771 1.132991 0.076889 1.049825 -17.647957 -12.342605 6.601613 -24.393720 -64.604253 -0.000002 -11.279393 0.000014 -43.572338 -10.397442 -10.123723 1.605770 16.680136 12.616229 8.431147 31.375611 52.341048 0.000002 24.348948 -0.000006 -21.297039 -1.188588 4.756521 -10.989591 14.647839 10.681772 12.773904 2.489480 4.122144 1.135215 0.555132 -7.572269 -4.916700 0.000009 0.000003 1.379535 -10.270094 3.656720 6.125549 -9.404038 -3.273326 -3.091792 -1.604292 2.865571 -7.343976 0.000006 -0.000015 
0.004395 2.072982 -0.040042 -4.008644 -5.783081 -3.670937 3.206792 1.503932 2.434799 0.897742 0.283676 1.395636 0.870799 0.307548 1.400484 5.831230 -0.144584 0.566627 -6.838407 1.044814 0.081604 1.047807 -17.659529 -12.344947 7.566239 -25.244116 -63.043869 -0.000013 -15.887546 0.000015 -46.442660 -11.176726 -9.897885 1.772106 17.112795 11.808481 7.852266 31.053609 50.664438 -0.000001 33.445736 0.000018 -19.634284 -1.764636 3.350093 -10.913080 14.659049 10.707162 12.702897 2.502477 4.122363 1.201342 0.553071 -7.567438 -4.913369 0.000009 0.000002 1.454988 -10.262035 3.692185 6.074033 -9.387809 -3.273433 -3.039040 -1.600843 2.839044 -7.342912 -0.000000 -0.000014 
0.004139 2.073003 -0.041103 -4.099556 -5.798475 -3.704997 3.186381 1.502362 2.410639 0.846694 0.282763 1.345706 0.819577 0.307758 1.350746 5.867805 -0.170958 0.605873 -6.705432 0.926502 0.097620 1.048696 -17.628343 -12.335756 8.695113 -25.766583 -61.361989 -0.000016 -22.108279 -0.000002 -49.341546 -11.570925 -8.978650 1.980437 17.674965 10.839224 6.335831 30.451210 49.952954 -0.000003 42.537520 0.000001 -16.814852 -2.568625 1.735292 -10.830609 14.677440 10.742170 12.642153 2.503919 4.124967 1.266493 0.549056 -7.570186 -4.907148 0.000007 0.000003 1.549180 -10.253021 3.736954 6.023447 -9.378491 -3.275196 -3.003899 -1.598255 2.811530 -7.338746 0.000012 -0.000013 
0.003801 2.073016 -0.042026 -4.195950 -5.804686 -3.740721 3.168046 1.507153 2.379805 0.799203 0.296606 1.282642 0.771942 0.322170 1.288107 5.867061 -0.205902 0.658581 -6.601937 0.768008 0.128628 1.050273 -17.536780 -12.310141 9.287954 -25.841333 -60.183201 -0.000009 -28.473930 -0.000015 -51.980134 -12.042085 -7.911421 2.234801 18.331531 9.713994 4.107599 30.285858 49.923106 0.000010 50.584576 -0.000014 -13.234547 -3.804424 0.458772 -10.747608 14.699067 10.781800 12.593401 2.490521 4.129718 1.327422 0.544952 -7.584496 -4.896274 0.000003 0.000002 1.626588 -10.242016 3.777533 6.031767 -9.375050 -3.280520 -3.007008 -1.601173 2.835740 -7.327870 0.000009 -0.000018 
0.003348 2.073045 -0.042787 -4.289959 -5.778303 -3.772710 3.149478 1.520602 2.343503 0.751145 0.325395 1.208211 0.723743 0.351620 1.214245 5.823982 -0.247256 0.704213 -6.509878 0.566634 0.174286 1.052975 -17.433826 -12.274084 9.136169 -25.694362 -59.712212 -0.000016 -34.050815 0.000014 -54.242381 -12.585529 -7.190899 2.542512 19.045542 8.419275 1.524674 30.712680 50.191693 0.000010 57.724374 -0.000016 -9.642187 -5.180205 0.251226 -10.668396 14.713126 10.814415 12.548818 2.451817 4.144100 1.389153 0.540887 -7.600473 -4.892057 0.000003 0.000002 1.686026 -10.231003 3.821106 6.080243 -9.407213 -3.297127 -3.012663 -1.604561 2.860129 -7.319734 0.000015 -0.000014 
0.002762 2.073107 -0.043399 -4.376037 -5.700873 -3.801436 3.128264 1.540007 2.304449 0.697733 0.365987 1.126723 0.670192 0.392928 1.133434 5.746225 -0.291448 0.725263 -6.414317 0.332837 0.224181 1.057351 -17.387546 -12.234331 8.550064 -25.612436 -59.699555 -0.000029 -38.914658 -0.000014 -56.125949 -12.875598 -6.817590 2.913758 19.828174 6.934233 -1.376798 31.427224 50.776111 -0.000028 64.173288 0.000026 -6.409537 -6.183512 1.262409 -10.601822 14.715571 10.837421 12.505900 2.371022 4.173173 1.458488 0.535996 -7.610120 -4.890626 -0.000002 -0.000003 1.742509 -10.221744 3.878457 6.136142 -9.493062 -3.326603 -3.026970 -1.606101 2.863150 -7.317751 0.000005 -0.000017 
0.002060 2.073184 -0.043843 -4.452528 -5.578160 -3.830461 3.104999 1.563984 2.263505 0.639649 0.415708 1.040312 0.611983 0.443387 1.047790 5.646510 -0.335961 0.724283 -6.332533 0.085381 0.265788 1.062813 -17.417245 -12.184010 7.814878 -25.713652 -59.916386 -0.000042 -43.394620 -0.000010 -57.650328 -12.777983 -6.442936 3.355236 20.734491 5.272860 -4.638308 32.161397 51.782727 -0.000025 69.872760 0.000019 -3.356902 -6.781318 2.944054 -10.551139 14.716664 10.858264 12.466350 2.247802 4.212625 1.531891 0.530693 -7.617953 -4.891156 0.000008 0.000003 1.814210 -10.208755 3.951698 6.162624 -9.627593 -3.365573 -3.035476 -1.607628 2.868849 -7.318269 0.000023 -0.000017 
0.001192 2.073241 -0.044043 -4.525642 -5.432491 -3.862081 3.083375 1.592192 2.218591 0.583897 0.474344 0.946230 0.556160 0.502811 0.954553 5.526649 -0.380253 0.721839 -6.294414 -0.158286 0.298515 1.070534 -17.493844 -12.096943 6.990052 -25.989959 -60.329982 -0.000040 -47.553030 -0.000002 -59.029131 -12.494686 -5.841895 3.858246 21.788182 3.516696 -8.150191 32.883263 53.108942 0.000020 74.791193 -0.000010 -0.204136 -7.408267 4.710148 -10.508154 14.726865 10.891153 12.434941 2.089358 4.248625 1.592638 0.525141 -7.634817 -4.892926 0.000001 -0.000001 1.907501 -10.188743 4.042867 6.161615 -9.791116 -3.415454 -3.043584 -1.608850 2.876842 -7.319965 -0.000003 -0.000014 
0.000049 2.073272 -0.043945 -4.598695 -5.271436 -3.895832 3.066708 1.625339 2.167664 0.537610 0.543633 0.841437 0.509874 0.572966 0.850676 5.369486 -0.425437 0.734226 -6.301588 -0.393018 0.329496 1.093389 -17.591787 -11.948938 6.066460 -26.435185 -60.949801 -0.000049 -51.290524 -0.000018 -60.689660 -12.286701 -5.189348 4.396574 22.921647 1.772205 -11.760587 33.674755 54.557410 -0.000147 79.032686 0.000130 2.965225 -8.321725 6.476179 -10.466678 14.758302 10.944835 12.409556 1.890757 4.272951 1.635942 0.519327 -7.661065 -4.895087 0.000017 -0.000002 2.029201 -10.155328 4.157721 6.128750 -9.983577 -3.484185 -3.052068 -1.609242 2.893196 -7.321441 0.000009 -0.000013 
